<?xml version="1.0" encoding="UTF-8"?>
<!DOCTYPE svg PUBLIC "-//W3C//DTD SVG 1.1//EN" "http://www.w3.org/Graphics/SVG/1.1/DTD/svg11.dtd">
<svg xmlns="http://www.w3.org/2000/svg" version="1.1" width="1024px" height="1023px" style="shape-rendering:geometricPrecision; text-rendering:geometricPrecision; image-rendering:optimizeQuality; fill-rule:evenodd; clip-rule:evenodd" xmlns:xlink="http://www.w3.org/1999/xlink">
<g><path style="opacity:1" fill="#fefefe" d="M -0.5,-0.5 C 340.833,-0.5 682.167,-0.5 1023.5,-0.5C 1023.5,340.5 1023.5,681.5 1023.5,1022.5C 682.167,1022.5 340.833,1022.5 -0.5,1022.5C -0.5,681.5 -0.5,340.5 -0.5,-0.5 Z"/></g>
<g><path style="opacity:1" fill="#010201" d="M 650.5,27.5 C 689.372,40.7685 726.372,58.1019 761.5,79.5C 794.762,101.568 825.595,126.902 854,155.5C 861.403,163.397 868.569,171.397 875.5,179.5C 895.401,203.639 913.068,229.305 928.5,256.5C 953.098,300.382 970.431,347.048 980.5,396.5C 993.805,463.826 993.805,531.159 980.5,598.5C 950.481,727.608 881.481,830.108 773.5,906C 718.426,941.87 658.76,966.704 594.5,980.5C 549.173,988.693 503.507,991.359 457.5,988.5C 421.294,984.659 385.627,977.992 350.5,968.5C 320.857,957.943 291.857,945.61 263.5,931.5C 247.591,922.264 231.924,912.598 216.5,902.5C 181.768,877.445 150.101,848.778 121.5,816.5C 105.643,797.319 90.9761,777.319 77.5,756.5C 71.8645,745.555 65.8645,734.889 59.5,724.5C 52.9639,710.875 46.6306,697.208 40.5,683.5C 34.0353,666.628 28.0353,649.628 22.5,632.5C 1.02022,553.465 -1.64645,473.798 14.5,393.5C 16.1628,391.562 16.8294,389.228 16.5,386.5C 46.4717,262.396 113.472,163.563 217.5,90C 317.51,22.7462 427.843,-5.25383 548.5,6C 583.223,10.0163 617.223,17.1829 650.5,27.5 Z"/></g>
<g><path style="opacity:1" fill="#036f03" d="M 468.5,29.5 C 638.943,24.6495 775.443,89.6495 878,224.5C 954.037,334.361 980.037,455.361 956,587.5C 923.42,735.388 840.254,844.555 706.5,915C 585.006,972.491 460.673,979.158 333.5,935C 208.269,885.435 118.769,798.935 65,675.5C 24.18,571.947 19.18,466.613 50,359.5C 98.6964,212.802 195.196,111.635 339.5,56C 381.415,41.4509 424.415,32.6175 468.5,29.5 Z"/></g>
<g><path style="opacity:1" fill="#f5f5f5" d="M 766.5,73.5 C 896.197,151.863 977.03,265.196 1009,413.5C 1035.65,569.917 1000.65,709.584 904,832.5C 813.832,938.88 699.166,999.88 560,1015.5C 403.312,1027 268.145,978.662 154.5,870.5C 87.8857,801.699 43.5523,724.199 21.5,638C 18.8333,637.333 18.8333,636.667 21.5,636C 21.1667,635.667 20.8333,635.333 20.5,635C 21.3805,634.292 22.0472,633.458 22.5,632.5C 28.0353,649.628 34.0353,666.628 40.5,683.5C 39.1595,687.004 39.8261,690.171 42.5,693C 42.1667,693.333 41.8333,693.667 41.5,694C 47.2886,704.076 52.1219,714.576 56,725.5C 57.0113,724.663 58.1779,724.33 59.5,724.5C 65.8645,734.889 71.8645,745.555 77.5,756.5C 76.8859,760.82 78.2193,764.654 81.5,768C 80.2881,769.107 80.6214,769.607 82.5,769.5C 82.3893,770.117 82.056,770.617 81.5,771C 83.1239,774.011 84.6239,777.178 86,780.5C 177.07,917.5 304.903,995 469.5,1013C 620.138,1022.69 750.471,976.687 860.5,875C 982.959,751.624 1032.46,603.124 1009,429.5C 984.27,295.124 917.77,186.957 809.5,105C 806.991,103.579 804.657,101.912 802.5,100C 800.975,98.9914 799.308,98.4914 797.5,98.5C 797.649,97.448 797.483,96.448 797,95.5C 796.667,95.8333 796.333,96.1667 796,96.5C 787.558,89.4608 778.058,83.1275 767.5,77.5C 766.618,76.2402 765.618,75.0736 764.5,74C 765.094,73.5357 765.761,73.369 766.5,73.5 Z"/></g>
<g><path style="opacity:1" fill="#eeeeee" d="M 766.5,73.5 C 765.761,73.369 765.094,73.5357 764.5,74C 765.618,75.0736 766.618,76.2402 767.5,77.5C 778.058,83.1275 787.558,89.4608 796,96.5C 796.333,96.1667 796.667,95.8333 797,95.5C 797.483,96.448 797.649,97.448 797.5,98.5C 799.308,98.4914 800.975,98.9914 802.5,100C 804.657,101.912 806.991,103.579 809.5,105C 917.77,186.957 984.27,295.124 1009,429.5C 1032.46,603.124 982.959,751.624 860.5,875C 750.471,976.687 620.138,1022.69 469.5,1013C 304.903,995 177.07,917.5 86,780.5C 84.6239,777.178 83.1239,774.011 81.5,771C 82.056,770.617 82.3893,770.117 82.5,769.5C 99.1857,795.376 117.686,820.043 138,843.5C 145.646,854.193 154.813,864.36 165.5,874C 167.246,874.471 168.913,875.138 170.5,876C 256.85,956.05 359.183,1000.72 477.5,1010C 559.237,1015.38 637.903,1001.71 713.5,969C 734.813,958.344 756.146,947.677 777.5,937C 820.069,910.462 857.902,877.962 891,839.5C 891.333,838.167 891.667,836.833 892,835.5C 977.647,733.564 1017.31,615.564 1011,481.5C 1007.99,433.125 998.325,386.125 982,340.5C 973.567,319.315 964.901,298.315 956,277.5C 942.079,251.977 926.412,227.644 909,204.5C 902.234,198.353 895.901,191.686 890,184.5C 889.667,183.167 889.333,181.833 889,180.5C 861.477,150.102 830.977,123.769 797.5,101.5C 790.886,96.7637 784.219,91.9304 777.5,87C 773.532,86.0357 770.365,83.8691 768,80.5C 767.667,80.8333 767.333,81.1667 767,81.5C 765.506,79.2816 763.673,78.615 761.5,79.5C 726.372,58.1019 689.372,40.7685 650.5,27.5C 652.547,27.5111 654.547,27.8444 656.5,28.5C 658.055,28.278 659.389,27.6113 660.5,26.5C 663.24,28.0334 666.573,29.2001 670.5,30C 671.931,30.4652 673.097,31.2986 674,32.5C 676.65,30.5977 678.984,31.2644 681,34.5C 710.697,44.2546 739.197,57.2546 766.5,73.5 Z"/></g>
<g><path style="opacity:1" fill="#d1d1d1" d="M 797.5,101.5 C 804.916,107.722 812.583,113.722 820.5,119.5C 821.833,121.167 823.167,122.833 824.5,124.5C 832.236,128.739 838.902,134.239 844.5,141C 850.351,144.586 855.351,149.086 859.5,154.5C 861.167,155.333 862.833,156.167 864.5,157C 871.933,166.105 879.766,174.938 888,183.5C 891.482,186.977 894.148,190.977 896,195.5C 904.233,203.053 910.9,211.72 916,221.5C 920.389,226.889 924.389,232.556 928,238.5C 933.174,243.502 936.841,249.502 939,256.5C 944.399,262.631 948.233,269.631 950.5,277.5C 949.624,277.631 948.957,277.298 948.5,276.5C 945.725,268.578 941.225,261.911 935,256.5C 934.297,252.231 932.964,248.231 931,244.5C 926.624,240.109 922.958,235.109 920,229.5C 917,226.167 914,222.833 911,219.5C 910.562,216.624 909.562,213.957 908,211.5C 902.947,206.59 898.114,201.59 893.5,196.5C 888.291,192.458 883.958,187.624 880.5,182C 878.922,180.906 877.255,180.072 875.5,179.5C 868.569,171.397 861.403,163.397 854,155.5C 825.595,126.902 794.762,101.568 761.5,79.5C 763.673,78.615 765.506,79.2816 767,81.5C 767.333,81.1667 767.667,80.8333 768,80.5C 770.365,83.8691 773.532,86.0357 777.5,87C 784.219,91.9304 790.886,96.7637 797.5,101.5 Z"/></g>
<g><path style="opacity:1" fill="#000000" d="M 381.5,187.5 C 388.957,188.152 395.957,190.319 402.5,194C 419.116,207.111 430.283,223.945 436,244.5C 449.784,291.946 448.451,338.946 432,385.5C 426.447,399.444 418.281,411.61 407.5,422C 391.678,434.169 375.678,434.502 359.5,423C 342.223,405.955 331.057,385.455 326,361.5C 316.236,319.546 318.236,278.212 332,237.5C 338.273,220.763 348.106,206.596 361.5,195C 367.785,191.005 374.452,188.505 381.5,187.5 Z"/></g>
<g><path style="opacity:1" fill="#000000" d="M 607.5,187.5 C 622.32,188.828 634.153,195.494 643,207.5C 658.926,230.273 667.926,255.607 670,283.5C 674.714,322.806 669.047,360.472 653,396.5C 645.355,412.812 633.189,424.312 616.5,431C 605.44,433.068 595.44,430.734 586.5,424C 568.657,406.825 557.157,385.992 552,361.5C 541.918,319.536 543.918,278.203 558,237.5C 563.52,222.955 571.686,210.122 582.5,199C 589.687,192.403 598.02,188.569 607.5,187.5 Z"/></g>
<g><path style="opacity:1" fill="#afafaf" d="M 875.5,179.5 C 877.255,180.072 878.922,180.906 880.5,182C 883.958,187.624 888.291,192.458 893.5,196.5C 895.511,199.692 897.344,203.026 899,206.5C 900.447,208.403 902.114,210.07 904,211.5C 904.543,213.631 905.376,215.631 906.5,217.5C 911.336,224.993 917.002,231.826 923.5,238C 931.891,253.704 941.058,268.871 951,283.5C 952.778,289.057 955.111,294.391 958,299.5C 959.251,306.643 961.584,313.309 965,319.5C 965.958,324.07 967.458,328.403 969.5,332.5C 972.332,340.846 974.999,349.179 977.5,357.5C 974.934,353.06 972.434,348.393 970,343.5C 961.807,323.066 953.474,302.399 945,281.5C 940.705,273.277 936.038,265.277 931,257.5C 930.329,256.748 929.496,256.414 928.5,256.5C 913.068,229.305 895.401,203.639 875.5,179.5 Z"/></g>
<g><path style="opacity:1" fill="#c6c6c6" d="M 893.5,196.5 C 898.114,201.59 902.947,206.59 908,211.5C 909.562,213.957 910.562,216.624 911,219.5C 914,222.833 917,226.167 920,229.5C 922.958,235.109 926.624,240.109 931,244.5C 932.964,248.231 934.297,252.231 935,256.5C 941.225,261.911 945.725,268.578 948.5,276.5C 948.957,277.298 949.624,277.631 950.5,277.5C 955.283,286.746 959.283,296.413 962.5,306.5C 965.939,312.379 969.105,318.379 972,324.5C 972.998,329.82 973.831,335.153 974.5,340.5C 973.121,337.693 971.454,335.026 969.5,332.5C 967.458,328.403 965.958,324.07 965,319.5C 961.584,313.309 959.251,306.643 958,299.5C 955.111,294.391 952.778,289.057 951,283.5C 941.058,268.871 931.891,253.704 923.5,238C 917.002,231.826 911.336,224.993 906.5,217.5C 905.376,215.631 904.543,213.631 904,211.5C 902.114,210.07 900.447,208.403 899,206.5C 897.344,203.026 895.511,199.692 893.5,196.5 Z"/></g>
<g><path style="opacity:1" fill="#464646" d="M 16.5,386.5 C 16.8294,389.228 16.1628,391.562 14.5,393.5C 14.7215,390.933 15.3882,388.599 16.5,386.5 Z"/></g>
<g><path style="opacity:1" fill="#999999" d="M 988.5,410.5 C 993.558,430.726 996.724,451.393 998,472.5C 1005.19,577.061 982.522,674.394 930,764.5C 924.749,769.993 920.749,776.327 918,783.5C 911.707,791.384 905.874,799.718 900.5,808.5C 895.146,813.188 890.146,818.188 885.5,823.5C 982.089,701.478 1016.42,563.811 988.5,410.5 Z"/></g>
<g><path style="opacity:1" fill="#858585" d="M 457.5,988.5 C 503.507,991.359 549.173,988.693 594.5,980.5C 596.963,980.781 599.13,981.781 601,983.5C 602.067,982.809 603.234,982.309 604.5,982C 603.304,981.346 603.304,980.846 604.5,980.5C 606.1,982.679 607.6,982.346 609,979.5C 609.667,982.167 610.333,982.167 611,979.5C 614.391,979.994 617.724,979.328 621,977.5C 621.772,977.645 622.439,977.978 623,978.5C 625.667,977.167 628.333,975.833 631,974.5C 634.4,975.584 637.566,974.917 640.5,972.5C 641.716,973.002 642.883,973.335 644,973.5C 644.5,972.333 645.333,971.5 646.5,971C 650.946,970.075 655.112,968.575 659,966.5C 660.43,966.306 661.93,966.306 663.5,966.5C 664.5,966 665.5,965.5 666.5,965C 665.304,964.346 665.304,963.846 666.5,963.5C 668.548,964.083 670.381,964.083 672,963.5C 676.928,960.957 681.761,959.124 686.5,958C 687.126,957.25 687.626,956.416 688,955.5C 688.725,956.059 689.558,956.392 690.5,956.5C 716.704,944.809 742.371,931.976 767.5,918C 767.167,917.667 766.833,917.333 766.5,917C 824.583,881.175 871.749,835.675 908,780.5C 908.333,780.833 908.667,781.167 909,781.5C 909,780.167 909,778.833 909,777.5C 910.016,776.366 910.683,776.699 911,778.5C 915.317,769.197 920.651,760.53 927,752.5C 927.723,749.417 929.39,746.417 932,743.5C 940.315,728.003 948.148,711.837 955.5,695C 955.167,694.667 954.833,694.333 954.5,694C 956.605,692.665 957.271,690.998 956.5,689C 960.884,679.952 964.551,670.952 967.5,662C 967.167,661.667 966.833,661.333 966.5,661C 968.462,655.987 970.795,651.153 973.5,646.5C 973.167,644.5 972.833,642.5 972.5,640.5C 972.846,639.304 973.346,639.304 974,640.5C 974.617,639.551 974.451,638.718 973.5,638C 974.167,637.667 974.833,637.333 975.5,637C 975.384,635.732 975.051,634.398 974.5,633C 975.923,629.284 977.589,625.617 979.5,622C 978.542,620.853 978.875,619.853 980.5,619C 979.833,618.667 979.167,618.333 978.5,618C 979.886,615.66 981.219,613.327 982.5,611C 980.109,609.691 980.109,608.691 982.5,608C 981.283,605.989 981.616,603.989 983.5,602C 982.747,600.513 981.914,600.346 981,601.5C 980.517,600.552 980.351,599.552 980.5,598.5C 993.805,531.159 993.805,463.826 980.5,396.5C 981.222,396.082 981.722,395.416 982,394.5C 995.532,447.314 999.532,502.981 994,561.5C 993.327,568.222 992.327,574.888 991,581.5C 990.25,582.126 989.416,582.626 988.5,583C 974.723,678.449 934.89,762.949 869,836.5C 760.816,949.992 628.316,1001.83 471.5,992C 466.493,991.687 461.827,990.52 457.5,988.5 Z"/></g>
<g><path style="opacity:1" fill="#c4c4c4" d="M 1003.5,457.5 C 1004.94,464.617 1005.78,471.951 1006,479.5C 1006.67,501.167 1006.67,522.833 1006,544.5C 1003.31,568.893 1000.14,593.227 996.5,617.5C 995.5,617.5 994.5,617.5 993.5,617.5C 992.653,622.888 991.487,628.221 990,633.5C 989.617,634.056 989.117,634.389 988.5,634.5C 993.228,610.867 997.561,587.201 1001.5,563.5C 1002.27,562.737 1002.77,561.737 1003,560.5C 1004.8,526.179 1004.96,491.845 1003.5,457.5 Z"/></g>
<g><path style="opacity:1" fill="#000100" d="M 187.5,458.5 C 193.011,458.205 198.344,459.038 203.5,461C 224.167,471.333 244.833,481.667 265.5,492C 278.035,499.869 280.868,510.369 274,523.5C 268.151,531.506 260.318,534.672 250.5,533C 245.066,529.949 239.4,527.449 233.5,525.5C 230.091,634.862 273.758,719.362 364.5,779C 429.295,815.62 497.462,823.453 569,802.5C 641.943,778.522 694.943,731.855 728,662.5C 748.566,619.033 756.733,573.366 752.5,525.5C 747.287,528.273 741.954,530.773 736.5,533C 724.508,534.255 716.008,529.422 711,518.5C 708.122,507.754 711.289,499.254 720.5,493C 743.198,481.651 765.864,470.318 788.5,459C 804.516,457.158 813.516,464.158 815.5,480C 815.435,487.463 812.435,493.463 806.5,498C 801.754,500.973 796.754,503.473 791.5,505.5C 798.698,591.361 776.865,668.695 726,737.5C 666.181,811.158 588.681,849.158 493.5,851.5C 402.482,849.459 327.316,814.126 268,745.5C 212.455,675.513 188.789,595.846 197,506.5C 190.168,502.752 183.501,498.752 177,494.5C 169.37,484.215 169.704,474.215 178,464.5C 181.147,462.35 184.313,460.35 187.5,458.5 Z"/></g>
<g><path style="opacity:1" fill="#b9b9b9" d="M 969.5,332.5 C 971.454,335.026 973.121,337.693 974.5,340.5C 975.497,340.47 976.164,340.97 976.5,342C 982.938,357.912 987.438,374.412 990,391.5C 991.333,394.833 992.667,398.167 994,401.5C 997.096,420.411 1000.26,439.078 1003.5,457.5C 1004.96,491.845 1004.8,526.179 1003,560.5C 1002.77,561.737 1002.27,562.737 1001.5,563.5C 1006.31,512.259 1003.64,461.426 993.5,411C 987.953,395.957 983.787,380.79 981,365.5C 979.907,362.691 978.74,360.024 977.5,357.5C 974.999,349.179 972.332,340.846 969.5,332.5 Z"/></g>
<g><path style="opacity:1" fill="#8f8f8f" d="M 928.5,256.5 C 929.496,256.414 930.329,256.748 931,257.5C 936.038,265.277 940.705,273.277 945,281.5C 953.474,302.399 961.807,323.066 970,343.5C 972.434,348.393 974.934,353.06 977.5,357.5C 978.307,364.151 979.641,370.651 981.5,377C 981.167,377.333 980.833,377.667 980.5,378C 984.341,388.53 987.007,399.363 988.5,410.5C 1016.42,563.811 982.089,701.478 885.5,823.5C 881.777,829.118 877.61,834.452 873,839.5C 853.735,859.609 833.901,878.609 813.5,896.5C 810.53,898.795 807.53,901.128 804.5,903.5C 799.531,904.97 795.531,907.803 792.5,912C 786.747,913.528 782.414,916.861 779.5,922C 774.267,924.478 768.933,926.645 763.5,928.5C 633.896,1001.44 498.563,1016.27 357.5,973C 356.109,971.35 354.609,970.85 353,971.5C 351.933,970.809 350.766,970.309 349.5,970C 350.056,969.617 350.389,969.117 350.5,968.5C 385.627,977.992 421.294,984.659 457.5,988.5C 461.827,990.52 466.493,991.687 471.5,992C 628.316,1001.83 760.816,949.992 869,836.5C 934.89,762.949 974.723,678.449 988.5,583C 989.416,582.626 990.25,582.126 991,581.5C 992.327,574.888 993.327,568.222 994,561.5C 999.532,502.981 995.532,447.314 982,394.5C 981.722,395.416 981.222,396.082 980.5,396.5C 970.431,347.048 953.098,300.382 928.5,256.5 Z"/></g>
<g><path style="opacity:1" fill="#7d7d7d" d="M 980.5,598.5 C 980.351,599.552 980.517,600.552 981,601.5C 981.914,600.346 982.747,600.513 983.5,602C 981.616,603.989 981.283,605.989 982.5,608C 980.109,608.691 980.109,609.691 982.5,611C 981.219,613.327 979.886,615.66 978.5,618C 979.167,618.333 979.833,618.667 980.5,619C 978.875,619.853 978.542,620.853 979.5,622C 977.589,625.617 975.923,629.284 974.5,633C 975.051,634.398 975.384,635.732 975.5,637C 974.833,637.333 974.167,637.667 973.5,638C 974.451,638.718 974.617,639.551 974,640.5C 973.346,639.304 972.846,639.304 972.5,640.5C 972.833,642.5 973.167,644.5 973.5,646.5C 970.795,651.153 968.462,655.987 966.5,661C 966.833,661.333 967.167,661.667 967.5,662C 964.551,670.952 960.884,679.952 956.5,689C 957.271,690.998 956.605,692.665 954.5,694C 954.833,694.333 955.167,694.667 955.5,695C 948.148,711.837 940.315,728.003 932,743.5C 929.39,746.417 927.723,749.417 927,752.5C 920.651,760.53 915.317,769.197 911,778.5C 910.683,776.699 910.016,776.366 909,777.5C 909,778.833 909,780.167 909,781.5C 908.667,781.167 908.333,780.833 908,780.5C 871.749,835.675 824.583,881.175 766.5,917C 766.833,917.333 767.167,917.667 767.5,918C 742.371,931.976 716.704,944.809 690.5,956.5C 689.558,956.392 688.725,956.059 688,955.5C 687.626,956.416 687.126,957.25 686.5,958C 681.761,959.124 676.928,960.957 672,963.5C 670.381,964.083 668.548,964.083 666.5,963.5C 665.304,963.846 665.304,964.346 666.5,965C 665.5,965.5 664.5,966 663.5,966.5C 661.93,966.306 660.43,966.306 659,966.5C 655.112,968.575 650.946,970.075 646.5,971C 645.333,971.5 644.5,972.333 644,973.5C 642.883,973.335 641.716,973.002 640.5,972.5C 637.566,974.917 634.4,975.584 631,974.5C 628.333,975.833 625.667,977.167 623,978.5C 622.439,977.978 621.772,977.645 621,977.5C 617.724,979.328 614.391,979.994 611,979.5C 610.333,982.167 609.667,982.167 609,979.5C 607.6,982.346 606.1,982.679 604.5,980.5C 603.304,980.846 603.304,981.346 604.5,982C 603.234,982.309 602.067,982.809 601,983.5C 599.13,981.781 596.963,980.781 594.5,980.5C 658.76,966.704 718.426,941.87 773.5,906C 881.481,830.108 950.481,727.608 980.5,598.5 Z"/></g>
<g><path style="opacity:1" fill="#d4d4d4" d="M 950.5,277.5 C 957.424,286.015 962.257,295.681 965,306.5C 974.899,325.312 982.899,344.978 989,365.5C 999.972,401.697 1006.31,438.697 1008,476.5C 1012.24,542.499 1004.4,606.999 984.5,670C 980.485,677.378 977.651,685.211 976,693.5C 972.896,700.888 969.896,708.221 967,715.5C 955.376,737.768 943.043,759.434 930,780.5C 921.281,795.265 911.615,809.598 901,823.5C 880.907,847.362 859.073,869.862 835.5,891C 833.754,891.471 832.087,892.138 830.5,893C 827.457,897.342 823.79,901.009 819.5,904C 817.754,904.471 816.087,905.138 814.5,906C 810.59,911.256 805.59,914.923 799.5,917C 798.257,918.154 797.257,919.488 796.5,921C 782.597,929.954 768.597,938.621 754.5,947C 744.554,950.64 735.22,955.306 726.5,961C 720.583,963.126 714.583,964.959 708.5,966.5C 714.296,963.191 720.462,960.524 727,958.5C 736.787,950.892 747.62,945.225 759.5,941.5C 765.905,936.299 772.905,932.132 780.5,929C 782.439,928.092 783.439,926.592 783.5,924.5C 786.714,924.06 789.047,922.394 790.5,919.5C 817.472,900.843 842.972,879.843 867,856.5C 869.094,854.079 870.76,851.412 872,848.5C 877.099,845.237 880.933,840.904 883.5,835.5C 889.23,831.265 893.73,825.931 897,819.5C 898,818.833 899,818.167 900,817.5C 914.361,797.789 928.028,777.789 941,757.5C 950.508,737.15 960.508,717.15 971,697.5C 976.24,684.787 980.906,671.787 985,658.5C 986.33,651.517 987.497,644.517 988.5,637.5C 988.5,636.5 988.5,635.5 988.5,634.5C 989.117,634.389 989.617,634.056 990,633.5C 991.487,628.221 992.653,622.888 993.5,617.5C 994.5,617.5 995.5,617.5 996.5,617.5C 1000.14,593.227 1003.31,568.893 1006,544.5C 1006.67,522.833 1006.67,501.167 1006,479.5C 1005.78,471.951 1004.94,464.617 1003.5,457.5C 1000.26,439.078 997.096,420.411 994,401.5C 992.667,398.167 991.333,394.833 990,391.5C 987.438,374.412 982.938,357.912 976.5,342C 976.164,340.97 975.497,340.47 974.5,340.5C 973.831,335.153 972.998,329.82 972,324.5C 969.105,318.379 965.939,312.379 962.5,306.5C 959.283,296.413 955.283,286.746 950.5,277.5 Z"/></g>
<g><path style="opacity:1" fill="#e2e2e2" d="M 40.5,683.5 C 46.6306,697.208 52.9639,710.875 59.5,724.5C 58.1779,724.33 57.0113,724.663 56,725.5C 52.1219,714.576 47.2886,704.076 41.5,694C 41.8333,693.667 42.1667,693.333 42.5,693C 39.8261,690.171 39.1595,687.004 40.5,683.5 Z"/></g>
<g><path style="opacity:1" fill="#bdbdbd" d="M 988.5,637.5 C 987.497,644.517 986.33,651.517 985,658.5C 980.906,671.787 976.24,684.787 971,697.5C 960.508,717.15 950.508,737.15 941,757.5C 928.028,777.789 914.361,797.789 900,817.5C 899,818.167 898,818.833 897,819.5C 893.73,825.931 889.23,831.265 883.5,835.5C 883.709,834.078 884.209,832.745 885,831.5C 888.789,828.554 892.123,825.221 895,821.5C 897.19,816.637 900.19,812.304 904,808.5C 904.333,807.167 904.667,805.833 905,804.5C 908,801.167 911,797.833 914,794.5C 915.162,790.34 917.495,787.006 921,784.5C 922.777,778.723 926.111,774.056 931,770.5C 931.527,766.237 932.694,762.237 934.5,758.5C 936.484,758.617 938.15,757.95 939.5,756.5C 945.885,742.062 953.052,728.062 961,714.5C 967.955,693.302 975.122,672.135 982.5,651C 983.009,649.831 983.842,648.998 985,648.5C 985.452,645.123 986.118,641.789 987,638.5C 987.383,637.944 987.883,637.611 988.5,637.5 Z"/></g>
<g><path style="opacity:1" fill="#a7a7a7" d="M 977.5,357.5 C 978.74,360.024 979.907,362.691 981,365.5C 983.787,380.79 987.953,395.957 993.5,411C 1003.64,461.426 1006.31,512.259 1001.5,563.5C 997.561,587.201 993.228,610.867 988.5,634.5C 988.5,635.5 988.5,636.5 988.5,637.5C 987.883,637.611 987.383,637.944 987,638.5C 986.118,641.789 985.452,645.123 985,648.5C 983.842,648.998 983.009,649.831 982.5,651C 975.122,672.135 967.955,693.302 961,714.5C 953.052,728.062 945.885,742.062 939.5,756.5C 938.15,757.95 936.484,758.617 934.5,758.5C 932.694,762.237 931.527,766.237 931,770.5C 926.111,774.056 922.777,778.723 921,784.5C 917.495,787.006 915.162,790.34 914,794.5C 911,797.833 908,801.167 905,804.5C 904.667,805.833 904.333,807.167 904,808.5C 900.19,812.304 897.19,816.637 895,821.5C 892.123,825.221 888.789,828.554 885,831.5C 884.209,832.745 883.709,834.078 883.5,835.5C 863.129,855.538 842.129,874.872 820.5,893.5C 811.236,899.764 802.57,906.764 794.5,914.5C 785.778,920.187 777.111,925.854 768.5,931.5C 751.886,939.807 735.22,948.14 718.5,956.5C 716.007,958.58 713.341,960.414 710.5,962C 700.718,965.904 691.052,969.737 681.5,973.5C 679.473,973.338 677.473,973.505 675.5,974C 657.65,981.963 638.984,987.13 619.5,989.5C 621.023,987.718 623.023,986.385 625.5,985.5C 674.755,973.874 720.755,954.874 763.5,928.5C 768.933,926.645 774.267,924.478 779.5,922C 782.414,916.861 786.747,913.528 792.5,912C 795.531,907.803 799.531,904.97 804.5,903.5C 807.53,901.128 810.53,898.795 813.5,896.5C 833.901,878.609 853.735,859.609 873,839.5C 877.61,834.452 881.777,829.118 885.5,823.5C 890.146,818.188 895.146,813.188 900.5,808.5C 905.874,799.718 911.707,791.384 918,783.5C 920.749,776.327 924.749,769.993 930,764.5C 982.522,674.394 1005.19,577.061 998,472.5C 996.724,451.393 993.558,430.726 988.5,410.5C 987.007,399.363 984.341,388.53 980.5,378C 980.833,377.667 981.167,377.333 981.5,377C 979.641,370.651 978.307,364.151 977.5,357.5 Z"/></g>
<g><path style="opacity:1" fill="#e1e1e1" d="M 797.5,101.5 C 830.977,123.769 861.477,150.102 889,180.5C 889.333,181.833 889.667,183.167 890,184.5C 895.901,191.686 902.234,198.353 909,204.5C 926.412,227.644 942.079,251.977 956,277.5C 964.901,298.315 973.567,319.315 982,340.5C 998.325,386.125 1007.99,433.125 1011,481.5C 1017.31,615.564 977.647,733.564 892,835.5C 891.667,836.833 891.333,838.167 891,839.5C 857.902,877.962 820.069,910.462 777.5,937C 756.146,947.677 734.813,958.344 713.5,969C 637.903,1001.71 559.237,1015.38 477.5,1010C 359.183,1000.72 256.85,956.05 170.5,876C 168.913,875.138 167.246,874.471 165.5,874C 154.813,864.36 145.646,854.193 138,843.5C 117.686,820.043 99.1857,795.376 82.5,769.5C 80.6214,769.607 80.2881,769.107 81.5,768C 78.2193,764.654 76.8859,760.82 77.5,756.5C 90.9761,777.319 105.643,797.319 121.5,816.5C 121.343,817.873 121.51,819.207 122,820.5C 127.061,825.627 131.394,831.293 135,837.5C 139.118,839.832 142.951,842.665 146.5,846C 158.181,858.681 170.181,871.014 182.5,883C 183.5,883.333 184.5,883.667 185.5,884C 191.859,889.695 198.192,895.362 204.5,901C 207.615,903.117 210.948,904.784 214.5,906C 217.555,910.23 221.555,913.063 226.5,914.5C 233.429,921.636 241.429,927.302 250.5,931.5C 254.275,933.939 258.275,935.939 262.5,937.5C 263.456,939.516 264.79,941.349 266.5,943C 276.938,947.052 287.272,951.385 297.5,956C 299.93,956.643 301.597,958.143 302.5,960.5C 306.205,961.686 309.538,963.352 312.5,965.5C 314.328,967.161 316.328,968.828 318.5,970.5C 380.195,996.805 444.695,1009.47 512,1008.5C 546.416,1007.86 580.583,1004.69 614.5,999C 646.647,992.673 677.314,982.506 706.5,968.5C 707.167,967.833 707.833,967.167 708.5,966.5C 714.583,964.959 720.583,963.126 726.5,961C 735.22,955.306 744.554,950.64 754.5,947C 768.597,938.621 782.597,929.954 796.5,921C 797.257,919.488 798.257,918.154 799.5,917C 805.59,914.923 810.59,911.256 814.5,906C 816.087,905.138 817.754,904.471 819.5,904C 823.79,901.009 827.457,897.342 830.5,893C 832.087,892.138 833.754,891.471 835.5,891C 859.073,869.862 880.907,847.362 901,823.5C 911.615,809.598 921.281,795.265 930,780.5C 943.043,759.434 955.376,737.768 967,715.5C 969.896,708.221 972.896,700.888 976,693.5C 977.651,685.211 980.485,677.378 984.5,670C 1004.4,606.999 1012.24,542.499 1008,476.5C 1006.31,438.697 999.972,401.697 989,365.5C 982.899,344.978 974.899,325.312 965,306.5C 962.257,295.681 957.424,286.015 950.5,277.5C 948.233,269.631 944.399,262.631 939,256.5C 936.841,249.502 933.174,243.502 928,238.5C 924.389,232.556 920.389,226.889 916,221.5C 910.9,211.72 904.233,203.053 896,195.5C 894.148,190.977 891.482,186.977 888,183.5C 879.766,174.938 871.933,166.105 864.5,157C 862.833,156.167 861.167,155.333 859.5,154.5C 855.351,149.086 850.351,144.586 844.5,141C 838.902,134.239 832.236,128.739 824.5,124.5C 823.167,122.833 821.833,121.167 820.5,119.5C 812.583,113.722 804.916,107.722 797.5,101.5 Z"/></g>
<g><path style="opacity:1" fill="#c0c0c0" d="M 121.5,816.5 C 150.101,848.778 181.768,877.445 216.5,902.5C 216.369,903.239 216.536,903.906 217,904.5C 220.222,907.388 223.722,909.888 227.5,912C 229.422,913.42 230.755,915.253 231.5,917.5C 235.584,920.437 239.917,922.937 244.5,925C 246.572,927.247 248.572,929.414 250.5,931.5C 241.429,927.302 233.429,921.636 226.5,914.5C 221.555,913.063 217.555,910.23 214.5,906C 210.948,904.784 207.615,903.117 204.5,901C 198.192,895.362 191.859,889.695 185.5,884C 184.5,883.667 183.5,883.333 182.5,883C 170.181,871.014 158.181,858.681 146.5,846C 142.951,842.665 139.118,839.832 135,837.5C 131.394,831.293 127.061,825.627 122,820.5C 121.51,819.207 121.343,817.873 121.5,816.5 Z"/></g>
<g><path style="opacity:1" fill="#b9b9b9" d="M 883.5,835.5 C 880.933,840.904 877.099,845.237 872,848.5C 870.76,851.412 869.094,854.079 867,856.5C 842.972,879.843 817.472,900.843 790.5,919.5C 784.567,922.918 778.734,926.585 773,930.5C 771.56,931.148 770.06,931.481 768.5,931.5C 777.111,925.854 785.778,920.187 794.5,914.5C 802.57,906.764 811.236,899.764 820.5,893.5C 842.129,874.872 863.129,855.538 883.5,835.5 Z"/></g>
<g><path style="opacity:1" fill="#b1b1b1" d="M 216.5,902.5 C 231.924,912.598 247.591,922.264 263.5,931.5C 262.402,932.397 262.402,933.23 263.5,934C 271.817,937.503 279.483,942.003 286.5,947.5C 292.141,950.58 298.141,952.746 304.5,954C 307.752,955.566 310.752,957.399 313.5,959.5C 307.152,956.663 300.486,954.496 293.5,953C 285.643,949.46 278.31,945.127 271.5,940C 268.582,938.85 265.582,938.017 262.5,937.5C 258.275,935.939 254.275,933.939 250.5,931.5C 248.572,929.414 246.572,927.247 244.5,925C 239.917,922.937 235.584,920.437 231.5,917.5C 230.755,915.253 229.422,913.42 227.5,912C 223.722,909.888 220.222,907.388 217,904.5C 216.536,903.906 216.369,903.239 216.5,902.5 Z"/></g>
<g><path style="opacity:1" fill="#bfbfbf" d="M 262.5,937.5 C 265.582,938.017 268.582,938.85 271.5,940C 278.31,945.127 285.643,949.46 293.5,953C 300.486,954.496 307.152,956.663 313.5,959.5C 315.032,961.521 317.032,963.021 319.5,964C 327.216,966.44 334.882,968.94 342.5,971.5C 343.635,972.474 344.635,973.641 345.5,975C 351.859,975.943 357.525,978.11 362.5,981.5C 353.303,979.487 344.303,976.987 335.5,974C 327.913,970.861 320.247,968.028 312.5,965.5C 309.538,963.352 306.205,961.686 302.5,960.5C 301.597,958.143 299.93,956.643 297.5,956C 287.272,951.385 276.938,947.052 266.5,943C 264.79,941.349 263.456,939.516 262.5,937.5 Z"/></g>
<g><path style="opacity:1" fill="#9b9b9b" d="M 763.5,928.5 C 720.755,954.874 674.755,973.874 625.5,985.5C 623.023,986.385 621.023,987.718 619.5,989.5C 604.489,991.446 589.489,993.612 574.5,996C 521.905,1002.03 469.571,1000.37 417.5,991C 406.271,988.554 394.937,986.22 383.5,984C 369.826,979.619 356.159,975.452 342.5,971.5C 334.882,968.94 327.216,966.44 319.5,964C 317.032,963.021 315.032,961.521 313.5,959.5C 310.752,957.399 307.752,955.566 304.5,954C 298.141,952.746 292.141,950.58 286.5,947.5C 279.483,942.003 271.817,937.503 263.5,934C 262.402,933.23 262.402,932.397 263.5,931.5C 291.857,945.61 320.857,957.943 350.5,968.5C 350.389,969.117 350.056,969.617 349.5,970C 350.766,970.309 351.933,970.809 353,971.5C 354.609,970.85 356.109,971.35 357.5,973C 498.563,1016.27 633.896,1001.44 763.5,928.5 Z"/></g>
<g><path style="opacity:1" fill="#c5c5c5" d="M 790.5,919.5 C 789.047,922.394 786.714,924.06 783.5,924.5C 783.439,926.592 782.439,928.092 780.5,929C 772.905,932.132 765.905,936.299 759.5,941.5C 747.62,945.225 736.787,950.892 727,958.5C 720.462,960.524 714.296,963.191 708.5,966.5C 707.833,967.167 707.167,967.833 706.5,968.5C 704.801,968.34 703.134,968.506 701.5,969C 691.719,972.813 682.052,976.813 672.5,981C 655.703,985.267 639.036,989.933 622.5,995C 605.206,997.882 587.872,1000.55 570.5,1003C 501.136,1009.78 433.136,1003.44 366.5,984C 364.68,983.8 363.347,982.966 362.5,981.5C 377.01,984.063 391.176,987.729 405,992.5C 472.952,1006.27 541.119,1007.1 609.5,995C 623.06,991.262 636.726,987.929 650.5,985C 661.176,981.614 671.509,977.781 681.5,973.5C 691.052,969.737 700.718,965.904 710.5,962C 713.341,960.414 716.007,958.58 718.5,956.5C 735.22,948.14 751.886,939.807 768.5,931.5C 770.06,931.481 771.56,931.148 773,930.5C 778.734,926.585 784.567,922.918 790.5,919.5 Z"/></g>
<g><path style="opacity:1" fill="#d4d4d4" d="M 312.5,965.5 C 320.247,968.028 327.913,970.861 335.5,974C 344.303,976.987 353.303,979.487 362.5,981.5C 363.347,982.966 364.68,983.8 366.5,984C 433.136,1003.44 501.136,1009.78 570.5,1003C 587.872,1000.55 605.206,997.882 622.5,995C 639.036,989.933 655.703,985.267 672.5,981C 682.052,976.813 691.719,972.813 701.5,969C 703.134,968.506 704.801,968.34 706.5,968.5C 677.314,982.506 646.647,992.673 614.5,999C 580.583,1004.69 546.416,1007.86 512,1008.5C 444.695,1009.47 380.195,996.805 318.5,970.5C 316.328,968.828 314.328,967.161 312.5,965.5 Z"/></g>
<g><path style="opacity:1" fill="#b0b0b0" d="M 342.5,971.5 C 356.159,975.452 369.826,979.619 383.5,984C 394.937,986.22 406.271,988.554 417.5,991C 469.571,1000.37 521.905,1002.03 574.5,996C 589.489,993.612 604.489,991.446 619.5,989.5C 638.984,987.13 657.65,981.963 675.5,974C 677.473,973.505 679.473,973.338 681.5,973.5C 671.509,977.781 661.176,981.614 650.5,985C 636.726,987.929 623.06,991.262 609.5,995C 541.119,1007.1 472.952,1006.27 405,992.5C 391.176,987.729 377.01,984.063 362.5,981.5C 357.525,978.11 351.859,975.943 345.5,975C 344.635,973.641 343.635,972.474 342.5,971.5 Z"/></g>
</svg>
